<mxfile host="app.diagrams.net" agent="Mozilla/5.0 (Windows NT 10.0; Win64; x64) AppleWebKit/537.36 (KHTML, like Gecko) Chrome/128.0.0.0 Safari/537.36 OPR/114.0.0.0" version="24.8.3">
  <diagram name="Page-1" id="YXM46tmEqxv7Cm-OC5qS">
    <mxGraphModel grid="1" page="1" gridSize="10" guides="1" tooltips="1" connect="1" arrows="1" fold="1" pageScale="1" pageWidth="850" pageHeight="1100" math="0" shadow="0">
      <root>
        <mxCell id="0" />
        <mxCell id="1" parent="0" />
        <mxCell id="_Ei-KFyO1rC4OXsq5nCb-10" style="edgeStyle=orthogonalEdgeStyle;rounded=0;orthogonalLoop=1;jettySize=auto;html=1;exitX=1;exitY=0.3333333333333333;exitDx=0;exitDy=0;exitPerimeter=0;entryX=0;entryY=0.5;entryDx=0;entryDy=0;" edge="1" parent="1" source="_Ei-KFyO1rC4OXsq5nCb-1" target="_Ei-KFyO1rC4OXsq5nCb-3">
          <mxGeometry relative="1" as="geometry">
            <Array as="points">
              <mxPoint x="170" y="440" />
              <mxPoint x="170" y="170" />
            </Array>
          </mxGeometry>
        </mxCell>
        <mxCell id="_Ei-KFyO1rC4OXsq5nCb-1" value="Player1" style="shape=umlActor;verticalLabelPosition=bottom;verticalAlign=top;html=1;" vertex="1" parent="1">
          <mxGeometry x="30" y="420" width="30" height="60" as="geometry" />
        </mxCell>
        <mxCell id="_Ei-KFyO1rC4OXsq5nCb-2" value="TicTacToe" style="shape=umlFrame;whiteSpace=wrap;html=1;pointerEvents=0;width=80;height=30;" vertex="1" parent="1">
          <mxGeometry x="90" y="90" width="710" height="690" as="geometry" />
        </mxCell>
        <mxCell id="_Ei-KFyO1rC4OXsq5nCb-12" style="edgeStyle=orthogonalEdgeStyle;rounded=0;orthogonalLoop=1;jettySize=auto;html=1;exitX=0.5;exitY=1;exitDx=0;exitDy=0;dashed=1;" edge="1" parent="1" source="_Ei-KFyO1rC4OXsq5nCb-3" target="_Ei-KFyO1rC4OXsq5nCb-5">
          <mxGeometry relative="1" as="geometry" />
        </mxCell>
        <mxCell id="_Ei-KFyO1rC4OXsq5nCb-3" value="Start Game" style="ellipse;whiteSpace=wrap;html=1;" vertex="1" parent="1">
          <mxGeometry x="405" y="150" width="80" height="40" as="geometry" />
        </mxCell>
        <mxCell id="_Ei-KFyO1rC4OXsq5nCb-15" style="edgeStyle=orthogonalEdgeStyle;rounded=0;orthogonalLoop=1;jettySize=auto;html=1;exitX=0.5;exitY=1;exitDx=0;exitDy=0;entryX=0.5;entryY=0;entryDx=0;entryDy=0;dashed=1;" edge="1" parent="1" source="_Ei-KFyO1rC4OXsq5nCb-5" target="_Ei-KFyO1rC4OXsq5nCb-14">
          <mxGeometry relative="1" as="geometry" />
        </mxCell>
        <mxCell id="_Ei-KFyO1rC4OXsq5nCb-5" value="Setup Board" style="ellipse;whiteSpace=wrap;html=1;" vertex="1" parent="1">
          <mxGeometry x="405" y="250" width="80" height="40" as="geometry" />
        </mxCell>
        <mxCell id="_Ei-KFyO1rC4OXsq5nCb-11" style="edgeStyle=orthogonalEdgeStyle;rounded=0;orthogonalLoop=1;jettySize=auto;html=1;exitX=0;exitY=0.3333333333333333;exitDx=0;exitDy=0;exitPerimeter=0;entryX=1;entryY=0.5;entryDx=0;entryDy=0;" edge="1" parent="1" source="_Ei-KFyO1rC4OXsq5nCb-7" target="_Ei-KFyO1rC4OXsq5nCb-3">
          <mxGeometry relative="1" as="geometry">
            <Array as="points">
              <mxPoint x="710" y="440" />
              <mxPoint x="710" y="170" />
            </Array>
          </mxGeometry>
        </mxCell>
        <mxCell id="_Ei-KFyO1rC4OXsq5nCb-7" value="Player2&lt;div&gt;&lt;br&gt;&lt;/div&gt;" style="shape=umlActor;verticalLabelPosition=bottom;verticalAlign=top;html=1;outlineConnect=0;" vertex="1" parent="1">
          <mxGeometry x="840" y="420" width="30" height="60" as="geometry" />
        </mxCell>
        <mxCell id="_Ei-KFyO1rC4OXsq5nCb-17" style="edgeStyle=orthogonalEdgeStyle;rounded=0;orthogonalLoop=1;jettySize=auto;html=1;exitX=0.5;exitY=1;exitDx=0;exitDy=0;entryX=0.5;entryY=0;entryDx=0;entryDy=0;dashed=1;" edge="1" parent="1" source="_Ei-KFyO1rC4OXsq5nCb-14" target="_Ei-KFyO1rC4OXsq5nCb-16">
          <mxGeometry relative="1" as="geometry" />
        </mxCell>
        <mxCell id="_Ei-KFyO1rC4OXsq5nCb-14" value="Player Move on click" style="ellipse;whiteSpace=wrap;html=1;" vertex="1" parent="1">
          <mxGeometry x="392.19" y="340" width="105.62" height="50" as="geometry" />
        </mxCell>
        <mxCell id="_Ei-KFyO1rC4OXsq5nCb-21" style="edgeStyle=orthogonalEdgeStyle;rounded=0;orthogonalLoop=1;jettySize=auto;html=1;exitX=0;exitY=0.5;exitDx=0;exitDy=0;entryX=1;entryY=0.5;entryDx=0;entryDy=0;dashed=1;" edge="1" parent="1" source="_Ei-KFyO1rC4OXsq5nCb-16" target="_Ei-KFyO1rC4OXsq5nCb-18">
          <mxGeometry relative="1" as="geometry" />
        </mxCell>
        <mxCell id="_Ei-KFyO1rC4OXsq5nCb-22" style="edgeStyle=orthogonalEdgeStyle;rounded=0;orthogonalLoop=1;jettySize=auto;html=1;exitX=1;exitY=0.5;exitDx=0;exitDy=0;entryX=0;entryY=0.5;entryDx=0;entryDy=0;dashed=1;" edge="1" parent="1" source="_Ei-KFyO1rC4OXsq5nCb-16" target="_Ei-KFyO1rC4OXsq5nCb-20">
          <mxGeometry relative="1" as="geometry" />
        </mxCell>
        <mxCell id="_Ei-KFyO1rC4OXsq5nCb-16" value="Update Board" style="ellipse;whiteSpace=wrap;html=1;" vertex="1" parent="1">
          <mxGeometry x="405" y="450" width="80" height="40" as="geometry" />
        </mxCell>
        <mxCell id="_Ei-KFyO1rC4OXsq5nCb-35" style="edgeStyle=orthogonalEdgeStyle;rounded=0;orthogonalLoop=1;jettySize=auto;html=1;exitX=0.5;exitY=1;exitDx=0;exitDy=0;entryX=0.5;entryY=0;entryDx=0;entryDy=0;dashed=1;" edge="1" parent="1" source="_Ei-KFyO1rC4OXsq5nCb-18" target="_Ei-KFyO1rC4OXsq5nCb-33">
          <mxGeometry relative="1" as="geometry" />
        </mxCell>
        <mxCell id="_Ei-KFyO1rC4OXsq5nCb-18" value="Check Winner" style="ellipse;whiteSpace=wrap;html=1;" vertex="1" parent="1">
          <mxGeometry x="260" y="450" width="95" height="40" as="geometry" />
        </mxCell>
        <mxCell id="_Ei-KFyO1rC4OXsq5nCb-36" style="edgeStyle=orthogonalEdgeStyle;rounded=0;orthogonalLoop=1;jettySize=auto;html=1;exitX=0.5;exitY=1;exitDx=0;exitDy=0;entryX=0.5;entryY=0;entryDx=0;entryDy=0;dashed=1;" edge="1" parent="1" source="_Ei-KFyO1rC4OXsq5nCb-20" target="_Ei-KFyO1rC4OXsq5nCb-34">
          <mxGeometry relative="1" as="geometry" />
        </mxCell>
        <mxCell id="_Ei-KFyO1rC4OXsq5nCb-20" value="Check Tie" style="ellipse;whiteSpace=wrap;html=1;" vertex="1" parent="1">
          <mxGeometry x="530" y="450" width="95" height="40" as="geometry" />
        </mxCell>
        <mxCell id="_Ei-KFyO1rC4OXsq5nCb-30" style="edgeStyle=orthogonalEdgeStyle;rounded=0;orthogonalLoop=1;jettySize=auto;html=1;exitX=0.5;exitY=1;exitDx=0;exitDy=0;entryX=0.5;entryY=0;entryDx=0;entryDy=0;dashed=1;" edge="1" parent="1" source="_Ei-KFyO1rC4OXsq5nCb-23" target="_Ei-KFyO1rC4OXsq5nCb-28">
          <mxGeometry relative="1" as="geometry" />
        </mxCell>
        <mxCell id="_Ei-KFyO1rC4OXsq5nCb-32" style="edgeStyle=orthogonalEdgeStyle;rounded=0;orthogonalLoop=1;jettySize=auto;html=1;exitX=0.5;exitY=1;exitDx=0;exitDy=0;entryX=0.5;entryY=0;entryDx=0;entryDy=0;dashed=1;" edge="1" parent="1" source="_Ei-KFyO1rC4OXsq5nCb-23" target="_Ei-KFyO1rC4OXsq5nCb-31">
          <mxGeometry relative="1" as="geometry" />
        </mxCell>
        <mxCell id="_Ei-KFyO1rC4OXsq5nCb-23" value="End Game" style="ellipse;whiteSpace=wrap;html=1;" vertex="1" parent="1">
          <mxGeometry x="260" y="630" width="95" height="40" as="geometry" />
        </mxCell>
        <mxCell id="_Ei-KFyO1rC4OXsq5nCb-26" value="Reset Board" style="ellipse;whiteSpace=wrap;html=1;" vertex="1" parent="1">
          <mxGeometry x="537.5" y="630" width="80" height="40" as="geometry" />
        </mxCell>
        <mxCell id="_Ei-KFyO1rC4OXsq5nCb-28" value="Play Again Button" style="ellipse;whiteSpace=wrap;html=1;" vertex="1" parent="1">
          <mxGeometry x="210" y="710" width="80" height="40" as="geometry" />
        </mxCell>
        <mxCell id="_Ei-KFyO1rC4OXsq5nCb-31" value="Exit" style="ellipse;whiteSpace=wrap;html=1;" vertex="1" parent="1">
          <mxGeometry x="330" y="710" width="80" height="40" as="geometry" />
        </mxCell>
        <mxCell id="_Ei-KFyO1rC4OXsq5nCb-38" style="edgeStyle=orthogonalEdgeStyle;rounded=0;orthogonalLoop=1;jettySize=auto;html=1;exitX=0.5;exitY=1;exitDx=0;exitDy=0;entryX=0.5;entryY=0;entryDx=0;entryDy=0;dashed=1;" edge="1" parent="1" source="_Ei-KFyO1rC4OXsq5nCb-33" target="_Ei-KFyO1rC4OXsq5nCb-23">
          <mxGeometry relative="1" as="geometry" />
        </mxCell>
        <mxCell id="_Ei-KFyO1rC4OXsq5nCb-33" value="Announce Winner" style="ellipse;whiteSpace=wrap;html=1;" vertex="1" parent="1">
          <mxGeometry x="267.5" y="540" width="80" height="40" as="geometry" />
        </mxCell>
        <mxCell id="_Ei-KFyO1rC4OXsq5nCb-37" style="edgeStyle=orthogonalEdgeStyle;rounded=0;orthogonalLoop=1;jettySize=auto;html=1;exitX=0.5;exitY=1;exitDx=0;exitDy=0;entryX=0.5;entryY=0;entryDx=0;entryDy=0;dashed=1;" edge="1" parent="1" source="_Ei-KFyO1rC4OXsq5nCb-34" target="_Ei-KFyO1rC4OXsq5nCb-26">
          <mxGeometry relative="1" as="geometry" />
        </mxCell>
        <mxCell id="_Ei-KFyO1rC4OXsq5nCb-34" value="Announce No Winner" style="ellipse;whiteSpace=wrap;html=1;" vertex="1" parent="1">
          <mxGeometry x="531.25" y="540" width="92.5" height="40" as="geometry" />
        </mxCell>
      </root>
    </mxGraphModel>
  </diagram>
</mxfile>
